<svg width="60" height="55" fill="none" xmlns="http://www.w3.org/2000/svg"><g clip-path="url(#clip0)"><path d="M37.727 45.367c-2.108-.626-3.013-1.027-3.013-2.05v-.046c0-.757.743-1.36 1.757-1.36 1.215 0 2.47.578 3.74 1.537l1.642-2.588c-1.456-1.274-3.243-1.987-5.337-1.987-2.937 0-5.033 1.877-5.033 4.71v.045c0 2.073 1.906 3.848 4.764 4.776 2.218.719 2.907 1.13 2.907 2.004v.043c0 .914-1.035 1.454-2.084 1.454-1.64 0-2.997-.731-4.286-1.893l-1.662 2.62c1.695 1.544 3.797 2.311 5.89 2.311 3.097 0 5.273-2.342 5.273-4.843v-.045c-.001-2.286-1.653-3.822-4.558-4.688z" fill="#000"/><path d="M8.07.416H.98v34.99h7.09V.416z" fill="url(#paint0_linear)"/><path d="M17.52.416h-7.087v34.99h7.088V.416z" fill="url(#paint1_linear)"/><path d="M26.977.416h-7.093v34.99h7.093V.416z" fill="url(#paint2_linear)"/><path d="M36.428.416h-7.092v34.99h7.092V.416z" fill="url(#paint3_linear)"/><path d="M45.881.416h-7.09v34.99h7.09V.416z" fill="url(#paint4_linear)"/><path d="M55.331.416h-7.088v34.99h7.088V.416z" fill="url(#paint5_linear)"/><path d="M48.243 52v-3.703h6.098v-2.772h-6.098V41.82h7.085v-2.767H45.09V54.77h10.238V52h-7.085zM10.428 39.052v9.899l-6.274-9.899H.98v15.717h3.129V44.407l6.571 10.362h2.88V39.052h-3.132zm16.226 0l-3.487 5.696-3.495-5.696h-3.776l5.707 8.91v6.807h3.179v-6.868l5.674-8.849h-3.802zm31.118.198h-.356v1.118h-.23V39.25h-.356v-.2h.943v.2h-.001zm1.327.275l-.016-.005-.368.847h-.126l-.383-.88-.016.004v.877h-.226V39.05h.284l.396.959h.014l.399-.959h.269v1.32h-.228v-.844z" fill="#000"/></g><defs><linearGradient id="paint0_linear" x1="4.535" y1="34.178" x2="4.535" y2="-4.214" gradientUnits="userSpaceOnUse"><stop stop-color="#1C5292"/><stop offset=".45" stop-color="#00B0E3"/><stop offset=".484" stop-color="#00B6E6"/><stop offset=".603" stop-color="#6AC8EE"/><stop offset=".717" stop-color="#99D6F4"/><stop offset=".824" stop-color="#B4E0F8"/><stop offset=".922" stop-color="#C4E6FB"/><stop offset="1" stop-color="#C9E8FB"/></linearGradient><linearGradient id="paint1_linear" x1="13.988" y1="34.178" x2="13.988" y2="-4.214" gradientUnits="userSpaceOnUse"><stop stop-color="#1C5292"/><stop offset=".45" stop-color="#00B0E3"/><stop offset=".484" stop-color="#00B6E6"/><stop offset=".603" stop-color="#6AC8EE"/><stop offset=".717" stop-color="#99D6F4"/><stop offset=".824" stop-color="#B4E0F8"/><stop offset=".922" stop-color="#C4E6FB"/><stop offset="1" stop-color="#C9E8FB"/></linearGradient><linearGradient id="paint2_linear" x1="23.441" y1="34.178" x2="23.441" y2="-4.214" gradientUnits="userSpaceOnUse"><stop stop-color="#1C5292"/><stop offset=".45" stop-color="#00B0E3"/><stop offset=".484" stop-color="#00B6E6"/><stop offset=".603" stop-color="#6AC8EE"/><stop offset=".717" stop-color="#99D6F4"/><stop offset=".824" stop-color="#B4E0F8"/><stop offset=".922" stop-color="#C4E6FB"/><stop offset="1" stop-color="#C9E8FB"/></linearGradient><linearGradient id="paint3_linear" x1="32.895" y1="34.178" x2="32.895" y2="-4.214" gradientUnits="userSpaceOnUse"><stop stop-color="#1C5292"/><stop offset=".45" stop-color="#00B0E3"/><stop offset=".484" stop-color="#00B6E6"/><stop offset=".603" stop-color="#6AC8EE"/><stop offset=".717" stop-color="#99D6F4"/><stop offset=".824" stop-color="#B4E0F8"/><stop offset=".922" stop-color="#C4E6FB"/><stop offset="1" stop-color="#C9E8FB"/></linearGradient><linearGradient id="paint4_linear" x1="42.348" y1="34.178" x2="42.348" y2="-4.214" gradientUnits="userSpaceOnUse"><stop stop-color="#1C5292"/><stop offset=".45" stop-color="#00B0E3"/><stop offset=".484" stop-color="#00B6E6"/><stop offset=".603" stop-color="#6AC8EE"/><stop offset=".717" stop-color="#99D6F4"/><stop offset=".824" stop-color="#B4E0F8"/><stop offset=".922" stop-color="#C4E6FB"/><stop offset="1" stop-color="#C9E8FB"/></linearGradient><linearGradient id="paint5_linear" x1="51.801" y1="34.178" x2="51.801" y2="-4.214" gradientUnits="userSpaceOnUse"><stop stop-color="#1C5292"/><stop offset=".45" stop-color="#00B0E3"/><stop offset=".484" stop-color="#00B6E6"/><stop offset=".603" stop-color="#6AC8EE"/><stop offset=".717" stop-color="#99D6F4"/><stop offset=".824" stop-color="#B4E0F8"/><stop offset=".922" stop-color="#C4E6FB"/><stop offset="1" stop-color="#C9E8FB"/></linearGradient><clipPath id="clip0"><path fill="#fff" transform="translate(.565)" d="M0 0h58.929v55H0z"/></clipPath></defs></svg>