<svg width="103" height="47" fill="none" xmlns="http://www.w3.org/2000/svg"><path d="M102.792 34.865v-1.469h-4.229c-.808 0-1.463.653-1.467 1.46l-.001.009.001-.001v10.123c0 .405-.113.544-.505.544h-.606V47h.998c1.582 0 1.582-1.3 1.582-1.79h-.001v-6.938h2.067v8.707h1.469v-8.706h.692v-1.469h-4.228v-1.277c0-.418.222-.663.587-.663h3.641v.001zm-10.359-.001h3.64v-1.468h-4.228c-.808 0-1.463.653-1.468 1.46v10.129c0 .405-.113.546-.504.546h-.606V47h.998c1.581 0 1.581-1.3 1.581-1.791v-3.217h4.035v-5.188h-4.035v-1.276c0-.419.22-.664.587-.664zm1.988 5.66h-2.575v-2.252h2.575v2.252zM53.905 34.55l-.832-1.606h-1.462l.828 1.606H46.33v1.462h13.71V34.55h-6.135zm4.423 5.71h1.712v-1.43h-1.13c-.362 0-.699-.172-1.565-1.038l-.927-.946h-2.014l1.763 1.777-2.981 2.607-2.983-2.607 1.763-1.777h-2.013l-.928.946c-.865.865-1.202 1.038-1.565 1.038h-1.13v1.43h1.712c.279 0 .544-.103 1.04-.54l2.925 2.54-3.055 2.67c-.474.409-.867.601-1.807.601h-.814V47l1.3-.001c.99 0 1.243-.03 1.99-.62l3.565-3.096 3.563 3.097c.747.588 1 .619 1.991.619l1.3.001v-1.469h-.815c-.94 0-1.332-.192-1.807-.6l-3.054-2.671 2.924-2.54c.497.437.762.54 1.04.54zm15.46-35.3V.014H56.171v24.928h17.617V19.99H61.12v-5.076h12.04v-4.95H61.12V4.96h12.668zM17.917.014v9.99H5.84V.014H.891v24.928h4.95v-9.99h12.076v9.99h4.949V.014h-4.95zM51.8 24.94l-9.23-13.86c.408-.353.982-.852 1.317-1.152 4.363-3.92 4.797-8.487 4.821-9.906h-4.78c-.014.674-.174 3.704-3.184 6.407-1.417 1.273-3.732 3.214-5.595 4.759V.103h-4.931v24.84h4.93v-7.728l.03.037c.13-.105 1.827-1.489 3.795-3.127l7.107 10.814h5.72z" fill="#003465"/><path d="M80.665 0v4.945a7.516 7.516 0 010 15.03v4.939c6.88 0 12.458-5.577 12.458-12.456C93.123 5.577 87.545 0 80.665 0z" fill="#E72742"/><path d="M102.792 0v4.945a7.516 7.516 0 000 15.03v4.939c-6.88 0-12.457-5.577-12.457-12.456C90.335 5.577 95.912 0 102.792 0zM81.42 39.879v-4.69c0-.49-.05-1.791-1.632-1.791h-10.48v6.481h2.176c-.048.081-.729 1.226-.777 1.3-.405.602-.501.745-1.236.745H68.2v1.46h1.27c1.104 0 1.646-.357 2.094-.906h.874c-.222.417-1.28 2.24-1.33 2.314-.405.602-.501.746-1.236.746h-1.27v1.46h1.27c1.404 0 1.9-.577 2.448-1.391.084-.126 1.738-3.071 1.768-3.129h2.73c-.22.417-1.28 2.24-1.329 2.314-.406.602-.501.746-1.236.746h-1.27v1.46h1.27c1.404 0 1.9-.577 2.448-1.391a314.74 314.74 0 001.768-3.129h1.48v2.333c0 .483-.216.726-.738.726h-1.095V47h1.72c1.582 0 1.582-1.3 1.582-1.79v-4.197H72.51c.16-.275.491-.848.65-1.134h8.258zm-10.65-5.013h8.483c.519 0 .705.252.705.614v.548H70.77v-1.162zm0 2.423h9.188v1.157H70.77v-1.157zM26.205 45.21v-4.033h-1.47v3.946c0 .324-.206.409-.5.409h-.61V47h.998c1.582 0 1.582-1.301 1.582-1.79zm-2.443-8.185l.83 2.223.15.402h1.466l-.983-2.625h-1.463zm0-3.455l.83 2.223.15.401h1.466l-.983-2.625h-1.463zm10.105 10.67c.416 0 1.41-.004 1.705-.966l.006-.018a2.13 2.13 0 00.061-.292l.005-.038c.011-.092.02-.189.02-.294v-1.618c.28.112.562.163.876.163h.988v-1.529l-1.076-.001c-.213-.012-.484-.106-1.175-.844l-.187-.21h1.887v-1.469h-1.826v-1.113h1.826V34.55h-1.826v-1.606h-1.469v1.606h-3.22v-1.606h-1.404v1.606h-1.83v1.462h1.83v1.112h-1.83v1.469h1.887l-.186.21c-.79.844-1.032.845-1.265.845h-.986v1.529h.986c.244 0 .468-.032.687-.097v4.13c0 .489 0 1.79 1.581 1.79h5.254c.49 0 1.79 0 1.79-1.582v-1.074H35.51v.65c0 .365-.19.537-.544.537H30.11c-.08 0-.291 0-.291-.259V44.24h4.048zm.323-2.007c0 .365-.19.538-.542.538h-3.829V41.63h4.37v.603h.001zm-3.727-6.221h3.219v1.112h-3.219v-1.113zm.743 2.58L33 38.589c.139.15 1.346 1.451 1.485 1.585H29.72c.14-.134 1.347-1.43 1.486-1.58zm-17.896.152c-.339 0-.622-.05-1.45-.717l-.475-.383h3.195V36.18H8.467v-1.06l4.494-.701v-1.47l-5.092.793c-.013.002-1.304.196-2.525.196H2.486v1.453h2.858c.586 0 1.177-.04 1.66-.085v.873H.891v1.464h3.196l-.475.382c-.828.668-1.111.718-1.45.718H.891v1.528h1.27c.822 0 1.43-.266 2.41-1.056l1.947-1.572h.486v3.062h-4.52v4.519c0 .489 0 1.775 1.583 1.775h8.902v-6.294H8.467v-3.063h.487c.571.464 1.454 1.177 1.946 1.573.98.79 1.588 1.056 2.41 1.056h1.27v-1.528h-1.27zm-1.784 6.788H4.45c-.357 0-.495-.212-.495-.617v-.42h7.571v1.037zm0-2.298H3.954v-1.05h7.572v1.05z" fill="#003465"/></svg>