<svg width="154" height="38" fill="none" xmlns="http://www.w3.org/2000/svg"><path fill-rule="evenodd" clip-rule="evenodd" d="M33.136 32.265c-3.631 3.631-8.529 5.489-13.342 5.489-12.33 0-18.747-8.613-18.747-18.493-.169-9.796 6.249-19 18.747-19 4.813 0 9.71 1.857 13.342 5.488l-1.942 1.69c-3.125-3.125-7.263-4.645-11.4-4.645-10.64 0-16.13 7.515-16.13 16.298.085 8.613 5.574 16.044 16.13 16.044 4.137 0 8.275-1.604 11.484-4.644l1.858 1.773zm7.262-14.609h21.449v2.533H40.398v14.356h23.138v2.702H37.527V.683h26.516v2.702H40.398v14.271zM92.331.683h3.04v.084L82.958 18.5l13.427 18.747h-3.378l-11.822-16.72-11.823 16.72h-3.377L79.41 18.5 66.998.767V.683h3.04L81.1 16.305 92.331.683z" fill="#CFCFCF"/><path fill-rule="evenodd" clip-rule="evenodd" d="M108.714 37.331V.683h2.702v36.564l-2.702.084zm44.755-18.324c-.084 9.627-6.164 18.916-18.409 18.916-12.244 0-18.409-9.29-18.409-19 0-9.796 6.08-18.831 18.409-18.831 12.329 0 18.494 9.035 18.409 18.915zm-34.115 0c.084 8.276 5.235 16.298 15.706 16.298s15.707-8.022 15.707-16.298c0-8.444-5.236-16.298-15.707-16.298-10.555 0-15.791 7.685-15.706 16.298z" fill="#00DCCA"/><path d="M98.496 21.034a2.027 2.027 0 100-4.055 2.027 2.027 0 000 4.055z" fill="#00DCCA"/></svg>