<svg width="130" height="55" fill="none" xmlns="http://www.w3.org/2000/svg"><path d="M28.348 6.597H4.02C2.133 6.597.587 5.122.587 3.305c0-1.816 1.546-3.3 3.433-3.3h24.328c7.288 0 13.203 5.67 13.203 12.64 0 3.699-1.684 7.022-4.35 9.317 2.666 2.326 4.35 5.657 4.35 9.348 0 6.973-5.915 12.622-13.203 12.622H4.02c-1.887 0-3.433-1.457-3.433-3.291 0-1.817 1.546-3.288 3.433-3.288h24.328c3.483 0 6.318-2.72 6.318-6.043s-2.835-6.043-6.318-6.043H4.02c-1.887 0-3.433-1.476-3.433-3.305 0-1.821 1.546-3.292 3.433-3.292h24.328c3.483 0 6.318-2.694 6.318-6.026 0-3.336-2.835-6.047-6.318-6.047zm73.253 0h24.342c1.891 0 3.429-1.475 3.429-3.292 0-1.816-1.538-3.3-3.429-3.3h-24.342c-7.266 0-13.185 5.67-13.185 12.64 0 3.699 1.675 7.022 4.347 9.317-2.672 2.326-4.347 5.657-4.347 9.348 0 6.973 5.92 12.622 13.185 12.622h24.342c1.891 0 3.429-1.457 3.429-3.291 0-1.817-1.538-3.288-3.429-3.288h-24.342c-3.473 0-6.308-2.72-6.308-6.043s2.835-6.043 6.308-6.043h24.342c1.891 0 3.429-1.476 3.429-3.305 0-1.821-1.538-3.292-3.429-3.292h-24.342c-3.473 0-6.308-2.694-6.308-6.026 0-3.336 2.835-6.047 6.308-6.047zm-43.578 0H82.36c1.923 0 3.46-1.475 3.46-3.296C85.82 1.475 84.283 0 82.36 0H58.023c-7.252 0-13.176 5.671-13.176 12.645 0 6.955 5.924 12.622 13.176 12.622h14.599c3.473 0 6.313 2.72 6.313 6.043 0 3.327-2.84 6.043-6.313 6.043H48.285c-1.887 0-3.438 1.471-3.438 3.288 0 1.834 1.55 3.291 3.438 3.291h24.337c7.266 0 13.198-5.648 13.198-12.622 0-6.969-5.932-12.64-13.198-12.64H58.023c-3.478 0-6.304-2.694-6.304-6.025 0-3.337 2.826-6.048 6.304-6.048z" fill="#0C87D1"/><path d="M.494 55h5.98l.112-.758H1.358l.261-1.856h5.233l.102-.762h-5.22l.253-1.843h5.228l.106-.767h-5.99L.494 55zm13.903-5.986l-2.805 2.45-2.104-2.45h-1.06l2.562 2.982L7.57 55h1.094l2.813-2.446 2.1 2.446h1.05l-2.56-2.982 3.437-3.004h-1.107zm5.263 2.614h-2.68l.26-1.847h2.548c.656 0 1.192.035 1.569.11 1.05.213.988.652.966.794-.062.451-.643.673-1.108.775-.47.115-.97.168-1.555.168zm2.229-2.432c-.475-.12-1.192-.182-2.18-.182h-3.124L15.743 55h.763l.372-2.614h2.392c.966 0 1.71-.062 2.215-.195.953-.217 1.493-.713 1.595-1.47.076-.528-.075-1.22-1.191-1.525zM23.581 55h5.99l.11-.758h-5.223l.257-1.856h5.224l.106-.762H24.82l.257-1.843h5.228l.111-.767h-5.99L23.581 55zm14.067-4.316c-.071.452-.638.674-1.117.776a6.462 6.462 0 01-1.564.168h-2.671l.261-1.847h2.552c.66 0 1.187.035 1.56.11 1.05.213.996.652.979.794zm-.448-1.488c-.46-.12-1.192-.186-2.166-.186H31.9L31.055 55h.762l.372-2.614h2.3L36.739 55h1.055l-2.264-2.64c.687-.045 1.263-.16 1.728-.324.669-.288 1.059-.722 1.139-1.316.075-.527-.071-1.218-1.197-1.524zM39.274 55h.77l.842-5.986h-.775L39.274 55zm2.242 0h5.994l.097-.758h-5.219l.253-1.856h5.232l.106-.762h-5.223l.248-1.843h5.241l.098-.767h-5.995L41.516 55zm13.588-1.037l-4.537-4.949h-.753L48.985 55h.758l.7-4.931 4.528 4.93h.758l.833-5.985h-.754l-.704 4.949zm4.058-3.793c.483-.26 1.21-.39 2.158-.39.598 0 1.08.045 1.426.138.505.129.864.372 1.072.73l.045.094.744-.332-.057-.102c-.44-.864-1.49-1.294-3.155-1.294-1.16 0-2.082.208-2.73.602-.783.475-1.257 1.276-1.417 2.375-.15 1.103.102 1.927.762 2.406.536.407 1.378.603 2.57.603 1.648 0 2.818-.413 3.487-1.259l.102-.12-.678-.345-.062.08c-.288.35-.7.593-1.303.77-.354.08-.842.116-1.466.116-.97 0-1.644-.129-2.038-.399-.536-.346-.736-.94-.612-1.82.129-.896.505-1.498 1.152-1.853M65.055 55h5.998l.107-.758h-5.233l.262-1.856h5.219l.115-.762h-5.219l.248-1.843h5.232l.107-.767h-5.994L65.055 55zm11.381-5.22h2.987l-.74 5.22h.766l.727-5.22h3l.11-.766h-6.748l-.102.767zm13.372 1.848h-5.21l.358-2.614H84.2L83.357 55h.77l.369-2.614H89.7L89.33 55h.767l.837-5.986h-.762l-.363 2.614zM91.57 55h5.99l.111-.758h-5.223l.261-1.856h5.22l.11-.762h-5.224l.253-1.843h5.228l.11-.767h-5.998L91.57 55zm17.337-1.037l-4.541-4.949h-.744L102.776 55h.766l.691-4.931 4.511 4.895.022.036h.758l.841-5.986h-.766l-.692 4.949zM110.985 55h5.999l.111-.758h-5.228l.266-1.856h5.214l.107-.762h-5.219l.261-1.843h5.219l.111-.767h-5.994L110.985 55zm17.696-5.986l-3.111 5.095-1.143-5.095h-.797l-2.579 5.1-1.67-5.1h-.811L120.52 55h.908l2.45-4.86 1.094 4.86h.904l3.646-5.986h-.841z" fill="#DC4A17"/></svg>